 <svg  version="1.0" xmlns="http://www.w3.org/2000/svg"  width="300.000000pt" height="225.000000pt" viewBox="0 0 300.000000 225.000000"  preserveAspectRatio="xMidYMid meet">  <g transform="translate(0.000000,225.000000) scale(0.100000,-0.100000)" fill="#ffffff" stroke="none"> <path d="M390 2177 c0 -22 47 -135 86 -206 116 -211 275 -328 623 -455 149 -55 154 -56 174 -39 29 25 -1 -13 -155 -195 -70 -82 -140 -172 -156 -198 -15 -27 -37 -53 -48 -58 -10 -5 -35 -29 -54 -55 -83 -110 -204 -291 -232 -344 -39 -78 -99 -141 -159 -168 -44 -20 -48 -25 -43 -48 19 -82 87 -138 217 -179 51 -16 111 -32 133 -35 l41 -5 -9 42 c-14 59 -5 205 14 241 9 17 74 113 144 214 109 158 125 187 115 202 -16 26 -16 26 32 56 57 37 87 64 81 74 -3 5 2 9 10 9 9 0 16 -4 16 -8 0 -15 -43 -57 -89 -86 -32 -20 -40 -31 -32 -39 18 -18 13 -37 -21 -80 -59 -74 -201 -282 -230 -336 -25 -47 -28 -63 -28 -146 0 -52 4 -97 10 -100 6 -4 10 28 10 90 0 84 3 102 26 148 30 58 130 207 211 311 30 40 53 80 53 93 0 23 61 93 81 93 4 0 13 16 19 35 9 27 17 35 35 35 30 0 52 23 75 74 10 23 27 52 39 65 11 13 21 28 21 34 0 13 -56 -58 -86 -110 -30 -50 -44 -57 -75 -36 -12 9 -19 12 -16 6 9 -15 -19 -37 -38 -29 -23 8 -18 28 5 21 22 -7 26 5 8 23 -17 17 6 16 42 -3 l28 -15 33 53 c102 167 255 267 599 393 357 130 517 249 630 465 53 101 95 213 78 206 -7 -3 -94 -39 -193 -80 -265 -108 -464 -198 -703 -317 l-213 -106 -182 92 c-208 106 -504 239 -722 326 -82 33 -162 67 -177 74 -23 12 -28 12 -28 1z m89 -56 c11 -6 18 -23 19 -43 2 -65 71 -190 144 -262 21 -21 37 -40 35 -42 -8 -8 -123 118 -150 164 -92 157 -107 214 -48 183z m2081 -3 c0 -29 -94 -198 -136 -244 -24 -27 -44 -52 -44 -55 0 -3 -15 -16 -32 -29 -31 -21 -30 -20 8 21 82 90 134 181 150 265 4 22 12 42 18 46 17 12 36 9 36 -4z m-1835 -101 c255 -112 292 -129 526 -243 l216 -106 -80 -78 -80 -78 -121 45 c-343 129 -532 259 -613 423 -40 80 -52 126 -32 117 8 -3 91 -39 184 -80z m1729 21 c-47 -122 -130 -217 -264 -304 -100 -64 -220 -118 -464 -209 -223 -84 -252 -101 -374 -219 -35 -33 -80 -83 -100 -111 -20 -27 -53 -69 -75 -93 -35 -39 -38 -48 -33 -80 l6 -37 -17 25 c-10 13 -27 35 -38 48 l-20 24 74 76 c101 105 219 249 259 314 17 30 38 77 44 106 l13 52 260 130 c143 71 348 167 455 214 107 47 213 95 235 105 63 31 66 27 39 -41z m-1080 -541 c-34 -52 -81 -110 -212 -256 -56 -64 -105 -126 -108 -138 -8 -31 -47 -32 -42 -2 4 28 382 470 386 452 2 -8 -9 -33 -24 -56z m-320 -469 c33 -29 63 -54 66 -56 3 -3 -1 -7 -8 -9 -7 -3 -25 -16 -41 -29 l-28 -23 -56 35 c-32 20 -57 38 -57 40 0 3 9 15 20 27 12 12 23 32 26 44 4 13 8 23 11 23 3 0 33 -23 67 -52z m-26 -137 c17 -7 32 -18 32 -23 0 -5 -46 -77 -102 -159 -57 -82 -117 -173 -135 -201 -44 -69 -58 -144 -45 -227 6 -36 10 -67 8 -68 -8 -9 -147 32 -203 60 -61 29 -143 103 -143 129 0 7 17 -4 38 -24 51 -49 78 -61 137 -61 79 1 98 13 118 75 19 62 50 110 195 307 56 77 102 144 102 150 0 6 -13 17 -29 25 -31 16 -91 80 -91 98 0 6 19 -7 43 -29 23 -21 57 -45 75 -52z m-53 -26 l46 -28 -24 -26 c-23 -24 -185 -235 -235 -304 -12 -18 -32 -57 -43 -87 -24 -66 -40 -80 -92 -80 -48 0 -95 21 -132 60 l-27 28 35 17 c51 24 112 89 147 158 27 53 102 166 210 319 l33 47 18 -38 c12 -27 32 -48 64 -66z"/> <path d="M632 298 c-14 -14 2 -48 24 -48 20 0 29 27 14 45 -15 18 -22 19 -38 3z"/> <path d="M695 300 c-3 -6 -3 -19 0 -30 7 -23 43 -27 51 -5 12 29 -35 61 -51 35z"/> <path d="M794 795 c-7 -17 12 -45 31 -45 7 0 18 7 25 15 10 12 10 18 0 30 -16 19 -49 19 -56 0z"/> <path d="M717 643 c-12 -11 -8 -40 7 -52 18 -15 46 -4 46 18 0 30 -35 52 -53 34z"/> <path d="M611 476 c-15 -18 2 -56 25 -56 19 0 30 29 17 48 -14 22 -28 25 -42 8z"/> <path d="M1720 1437 c0 -3 63 -78 139 -167 86 -99 138 -167 134 -176 -7 -19 -43 -18 -43 1 0 31 -265 326 -286 318 -8 -3 -14 -10 -14 -16 0 -15 80 -110 184 -218 l92 -95 -34 -45 c-18 -24 -35 -46 -37 -48 -2 -2 -2 12 2 32 5 31 0 40 -34 78 -21 24 -55 67 -75 94 -20 28 -65 78 -101 113 l-65 62 -35 -22 -35 -23 31 -24 c52 -41 116 -112 154 -173 l35 -57 29 14 c35 19 58 20 41 3 -19 -19 -14 -30 10 -23 18 6 20 4 13 -11 -18 -43 -11 -58 48 -96 51 -34 74 -68 47 -68 -5 0 -10 -5 -10 -10 0 -6 57 -93 127 -193 166 -239 167 -241 161 -383 l-5 -112 36 5 c71 11 219 63 258 92 48 35 78 75 87 117 6 29 4 31 -43 52 -59 27 -120 90 -157 164 -57 113 -254 389 -288 404 -12 5 -33 32 -48 59 -35 63 -278 349 -301 353 -9 2 -17 1 -17 -1z m306 -381 c3 -14 14 -32 25 -42 10 -9 19 -20 19 -25 0 -4 -25 -24 -55 -44 l-55 -36 -30 24 c-16 14 -35 27 -42 30 -8 3 -3 13 17 28 17 13 46 38 65 56 42 39 48 40 56 9z m46 -118 c-12 -18 -39 -44 -61 -58 -23 -14 -41 -29 -41 -34 0 -5 56 -85 125 -177 129 -175 159 -224 179 -293 11 -38 16 -42 61 -54 73 -18 133 -2 185 50 22 22 40 35 40 29 0 -25 -86 -103 -144 -131 -57 -28 -193 -66 -202 -57 -3 2 1 28 7 57 13 60 6 140 -15 191 -8 19 -39 68 -68 109 -82 114 -198 288 -198 298 0 4 20 18 44 29 23 12 56 35 72 51 36 37 43 33 16 -10z m155 -140 c60 -90 120 -185 133 -211 26 -52 104 -131 145 -147 14 -5 25 -13 25 -17 0 -5 -23 -25 -51 -45 -41 -31 -60 -38 -96 -38 -48 0 -83 14 -83 33 0 44 -120 223 -272 408 -40 50 -47 69 -23 69 20 0 95 73 95 93 0 10 4 17 9 17 4 0 58 -73 118 -162z"/> <path d="M2260 295 c-16 -20 -6 -45 19 -45 20 0 37 32 26 50 -9 15 -31 12 -45 -5z"/> <path d="M2330 295 c-16 -19 -5 -47 16 -43 27 5 42 37 24 48 -20 13 -26 12 -40 -5z"/> <path d="M2150 795 c-11 -13 -11 -19 4 -33 20 -20 51 -6 51 24 0 24 -37 30 -55 9z"/> <path d="M2242 638 c-16 -16 -15 -33 3 -48 20 -17 47 5 43 34 -4 24 -28 32 -46 14z"/> <path d="M2352 478 c-30 -30 1 -74 33 -48 20 16 19 46 -1 54 -20 8 -18 8 -32 -6z"/> <path d="M1587 1217 c29 -31 63 -81 77 -111 25 -53 40 -66 75 -66 10 0 22 -13 29 -32 7 -18 32 -48 57 -67 35 -25 45 -40 45 -61 0 -19 16 -48 48 -87 64 -77 182 -254 215 -322 22 -46 27 -69 27 -135 0 -45 5 -88 10 -96 7 -10 10 17 10 86 0 93 -3 107 -29 157 -29 56 -168 258 -228 334 -34 42 -41 67 -23 78 17 11 11 20 -26 40 -37 20 -94 73 -94 87 0 4 8 8 18 8 16 1 16 1 0 11 -10 5 -18 17 -18 26 0 15 -2 14 -19 -1 -26 -24 -44 -12 -84 52 -20 31 -59 80 -88 107 l-53 50 51 -58z"/> <path d="M2283 196 c-28 -6 -55 -15 -60 -20 -5 -5 2 -6 17 -2 14 3 42 9 63 12 20 4 40 11 43 15 6 10 5 10 -63 -5z"/> <path d="M671 196 c10 -10 89 -23 94 -16 2 4 -12 10 -33 14 -44 7 -67 8 -61 2z"/> </g> </svg> 