<?xml version="1.0" standalone="no"?>
<!DOCTYPE svg PUBLIC "-//W3C//DTD SVG 20010904//EN"
 "http://www.w3.org/TR/2001/REC-SVG-20010904/DTD/svg10.dtd">
<svg version="1.0" xmlns="http://www.w3.org/2000/svg"
 width="300.000000pt" height="274.000000pt" viewBox="0 0 300.000000 274.000000"
 preserveAspectRatio="xMidYMid meet">
<metadata>
Created by potrace 1.10, written by Peter Selinger 2001-2011
</metadata>
<g transform="translate(0.000000,274.000000) scale(0.100000,-0.100000)"
fill="#000000" stroke="none">
<path d="M1500 2440 c-74 -15 -147 -56 -178 -101 -11 -16 -3 -13 28 10 64 46
127 61 257 61 138 0 188 -16 209 -66 21 -50 18 -73 -31 -203 -41 -109 -45
-128 -45 -208 0 -124 -11 -110 288 -381 51 -46 92 -88 92 -94 0 -5 -14 2 -31
16 -17 14 -39 26 -49 26 -28 0 -100 -80 -98 -110 1 -23 1 -22 5 4 3 17 12 30
24 33 10 3 19 11 19 18 0 22 38 48 62 41 33 -8 100 -75 94 -93 -3 -8 -6 -26
-6 -39 0 -13 -9 -33 -19 -43 -11 -11 -24 -29 -31 -40 -6 -12 -19 -21 -29 -21
-10 0 -24 -6 -31 -14 -6 -8 -18 -12 -25 -10 -7 3 -23 0 -35 -6 -17 -9 -25 -8
-39 4 -10 9 -25 16 -34 16 -22 0 -26 10 -28 68 -2 47 2 58 61 144 34 51 52 84
40 73 -67 -59 -182 -281 -200 -385 -16 -95 -9 -254 13 -304 19 -43 34 -45 17
-2 -13 34 -13 242 0 321 5 33 20 87 32 120 l23 60 5 -50 c4 -40 9 -51 25 -53
11 -3 28 -13 39 -24 11 -12 24 -17 35 -13 9 4 25 9 36 12 37 9 105 43 105 52
0 5 11 23 25 39 17 20 25 44 27 76 l3 47 22 -28 c62 -76 98 -194 98 -313 -1
-113 -21 -173 -89 -263 -60 -80 -107 -110 -177 -115 -72 -5 -121 11 -170 55
-47 43 -53 30 -6 -14 49 -47 89 -63 157 -63 78 0 122 22 188 95 136 149 160
340 67 540 -39 85 -147 211 -272 318 -127 108 -192 178 -203 217 -18 64 -11
140 21 230 59 164 62 180 51 229 -6 25 -9 48 -7 49 7 7 65 -103 81 -153 36
-108 125 -288 226 -460 130 -221 156 -273 215 -428 44 -114 47 -128 47 -217 1
-86 -3 -103 -32 -172 -74 -172 -225 -353 -337 -404 -66 -30 -159 -41 -210 -24
-151 50 -219 266 -159 503 27 105 196 437 276 541 l32 41 -38 -35 c-134 -125
-306 -490 -306 -649 0 -87 -13 -72 -52 60 -68 236 -147 466 -208 609 -33 76
-60 141 -60 144 0 6 -150 396 -180 468 -11 26 -20 63 -20 83 0 92 45 98 175
23 135 -77 281 -144 364 -167 41 -12 77 -19 79 -16 3 2 -4 7 -14 10 -61 20
-189 79 -334 156 -193 102 -221 111 -256 78 -35 -33 -39 -75 -14 -145 12 -32
39 -108 60 -169 55 -159 139 -378 208 -546 33 -80 82 -211 107 -290 26 -79 67
-202 92 -274 24 -71 48 -152 53 -179 25 -131 90 -229 175 -262 60 -22 154 -15
227 19 175 80 398 417 398 601 0 104 -80 312 -202 522 -174 302 -199 350 -264
516 -73 186 -96 217 -188 261 -94 45 -183 57 -276 37z"/>
<path d="M1651 2311 c-11 -11 -25 -21 -31 -21 -17 0 -50 -43 -50 -64 1 -16 5
-12 15 13 13 28 19 33 41 28 20 -3 27 1 34 18 16 42 71 36 118 -11 36 -35 39
-22 4 16 -39 42 -100 52 -131 21z"/>
<path d="M969 2291 l-24 -19 46 5 c34 4 50 1 62 -12 14 -14 17 -14 17 -1 0 18
-37 46 -61 46 -9 0 -27 -9 -40 -19z"/>
<path d="M765 2279 c-92 -22 -114 -30 -150 -59 -50 -40 -93 -99 -116 -160 -10
-28 -17 -50 -15 -50 3 0 19 27 37 61 69 129 157 173 335 167 101 -3 104 -2 84
14 -24 19 -84 38 -115 37 -11 -1 -38 -5 -60 -10z"/>
<path d="M1155 2247 c-4 -25 -5 -52 -3 -59 3 -7 8 11 13 40 4 29 5 56 2 59 -3
2 -9 -16 -12 -40z"/>
<path d="M1190 2219 c-6 -24 -13 -52 -16 -61 -3 -10 -3 -18 0 -18 7 0 38 111
32 117 -2 3 -10 -15 -16 -38z"/>
<path d="M987 2222 c-9 -15 -32 -45 -51 -67 l-34 -40 -29 21 c-34 25 -145 39
-189 23 -17 -6 -46 -34 -69 -66 -48 -66 -56 -85 -44 -104 6 -10 9 -7 9 12 0
16 13 39 34 60 18 19 38 42 43 53 14 25 75 46 98 34 9 -6 26 -7 37 -5 22 6 98
-22 98 -36 0 -4 -25 -43 -55 -86 -103 -147 -163 -307 -150 -401 11 -78 55
-159 119 -217 43 -40 102 -75 241 -143 101 -50 211 -112 245 -139 79 -61 170
-174 218 -270 33 -68 37 -83 37 -155 0 -192 -87 -291 -268 -304 -60 -4 -73 -2
-130 26 -85 43 -157 109 -195 179 -39 73 -92 230 -93 274 0 19 -5 43 -10 54
-20 44 3 -143 27 -215 54 -160 121 -245 242 -306 101 -51 228 -42 333 24 51
33 87 94 96 162 3 22 10 40 15 40 12 0 2 -82 -23 -175 -10 -38 -16 -71 -15
-73 7 -7 45 98 56 155 10 52 10 79 -4 165 -23 142 -62 220 -166 331 -90 96
-173 155 -301 214 -129 60 -228 121 -288 177 -171 161 -144 360 90 673 45 60
85 116 91 126 16 30 4 29 -15 -1z"/>
<path d="M1074 2215 c16 -72 103 -333 161 -485 57 -152 100 -278 185 -545 17
-55 60 -168 95 -250 87 -205 118 -317 113 -405 -3 -60 -8 -75 -43 -126 -88
-129 -177 -189 -304 -204 -98 -13 -232 1 -302 32 -54 23 -136 104 -167 164
-93 182 -60 474 85 743 82 153 81 174 -2 47 -93 -143 -140 -301 -152 -507 -5
-102 -3 -125 16 -190 30 -98 57 -143 128 -210 85 -82 128 -94 328 -94 159 0
160 0 213 30 62 34 132 107 181 190 65 109 54 196 -63 484 -71 175 -107 275
-131 371 -34 135 -80 272 -170 510 -51 135 -110 294 -130 355 -36 109 -54 148
-41 90z"/>
<path d="M1706 2214 c-5 -14 -4 -15 9 -4 15 13 37 3 57 -25 5 -6 8 -6 8 2 0
13 -38 43 -56 43 -7 0 -15 -7 -18 -16z"/>
<path d="M1216 2169 c-9 -29 -14 -54 -12 -57 3 -2 12 20 20 49 9 29 14 54 12
57 -3 2 -12 -20 -20 -49z"/>
<path d="M1236 2141 c-9 -30 -16 -62 -15 -70 0 -9 9 11 20 44 10 33 17 65 15
70 -2 6 -11 -14 -20 -44z"/>
<path d="M475 2145 c-52 -18 -105 -76 -105 -113 0 -74 138 -127 310 -120 l75
3 -50 17 c-27 10 -84 22 -126 28 -103 12 -157 35 -166 68 -8 35 17 72 68 100
68 36 65 42 -6 17z"/>
<path d="M1266 2091 c-23 -77 -19 -99 4 -26 11 33 18 65 16 70 -2 6 -11 -14
-20 -44z"/>
<path d="M1311 2077 c-20 -53 -43 -139 -38 -144 3 -2 17 33 31 78 14 46 23 85
21 88 -3 2 -9 -8 -14 -22z"/>
<path d="M1321 1975 c-12 -37 -21 -72 -20 -79 1 -6 12 23 25 63 13 41 22 77
19 79 -2 2 -13 -26 -24 -63z"/>
<path d="M1355 1948 c-8 -29 -18 -71 -20 -93 -3 -22 6 0 19 50 27 97 28 131 1
43z"/>
<path d="M384 1945 c4 -19 69 -194 155 -417 91 -237 139 -452 161 -728 14
-171 31 -257 24 -120 -15 283 -43 476 -97 661 -47 157 -267 705 -243 604z"/>
<path d="M1395 1919 c-25 -69 -45 -135 -44 -148 0 -9 14 22 30 68 16 47 27 87
24 89 -2 3 -7 -1 -10 -9z"/>
<path d="M1416 1862 c-8 -13 -45 -164 -38 -157 4 3 16 42 28 86 20 73 23 91
10 71z"/>
<path d="M520 1834 c-7 -16 -13 -42 -16 -59 -3 -18 4 -8 16 24 11 30 18 57 15
59 -2 3 -9 -8 -15 -24z"/>
<path d="M542 1779 c-14 -59 -15 -80 -3 -59 10 17 26 110 19 110 -3 0 -10 -23
-16 -51z"/>
<path d="M1421 1744 c-33 -114 -34 -120 -27 -113 9 9 57 172 53 183 -2 5 -13
-26 -26 -70z"/>
<path d="M575 1735 c-9 -31 -14 -62 -13 -67 2 -6 12 17 21 52 10 34 16 65 13
67 -2 2 -12 -21 -21 -52z"/>
<path d="M1456 1699 c-30 -108 -35 -132 -26 -123 10 10 51 166 45 172 -2 2
-11 -20 -19 -49z"/>
<path d="M590 1671 c-7 -32 -10 -65 -8 -73 3 -7 11 18 18 55 15 84 8 100 -10
18z"/>
<path d="M1487 1663 c-9 -15 -37 -116 -37 -132 1 -9 12 18 25 59 21 66 27 97
12 73z"/>
<path d="M611 1599 c-7 -33 -10 -63 -8 -65 2 -3 10 23 16 57 7 33 10 63 8 65
-2 3 -10 -23 -16 -57z"/>
<path d="M1885 1624 c-4 -16 -8 -35 -11 -41 -2 -7 1 -13 6 -13 10 0 25 68 17
77 -3 3 -9 -8 -12 -23z"/>
<path d="M1486 1560 c-25 -108 -26 -114 -17 -104 12 13 44 151 39 166 -3 7
-12 -21 -22 -62z"/>
<path d="M637 1593 c-3 -5 -8 -30 -11 -58 -5 -50 -1 -42 14 28 8 35 6 46 -3
30z"/>
<path d="M1525 1534 c-23 -55 -45 -134 -37 -134 7 0 63 170 56 170 -2 0 -11
-16 -19 -36z"/>
<path d="M657 1537 c-3 -8 -8 -36 -11 -63 -5 -47 -5 -46 8 11 14 57 15 82 3
52z"/>
<path d="M1527 1435 c-15 -49 -25 -90 -23 -92 6 -6 58 156 54 168 -2 7 -16
-28 -31 -76z"/>
<path d="M688 1483 c-3 -4 -11 -30 -17 -58 -7 -27 -15 -57 -18 -65 -3 -10 -1
-12 6 -5 10 11 43 127 37 133 -2 2 -6 0 -8 -5z"/>
<path d="M1550 1365 c-17 -54 -29 -103 -27 -109 2 -6 18 36 36 93 18 57 30
105 27 108 -2 3 -18 -39 -36 -92z"/>
<path d="M686 1383 c-9 -31 -19 -118 -13 -113 3 3 10 33 16 65 9 59 8 84 -3
48z"/>
<path d="M1575 1300 c-15 -45 -25 -84 -22 -86 3 -3 17 32 31 77 14 46 23 85
22 87 -2 2 -16 -33 -31 -78z"/>
<path d="M712 1310 c-14 -61 -26 -146 -18 -139 9 8 38 157 34 171 -3 7 -9 -8
-16 -32z"/>
<path d="M1597 1258 c-14 -40 -28 -86 -31 -103 -4 -16 10 15 29 69 19 55 33
101 31 103 -2 2 -15 -29 -29 -69z"/>
<path d="M2046 1322 c8 -11 -20 -32 -43 -32 -14 0 -21 -4 -18 -10 10 -15 30
-12 56 9 17 14 21 22 13 29 -6 5 -9 7 -8 4z"/>
<path d="M741 1234 c-18 -70 -30 -128 -26 -132 2 -2 8 13 14 34 5 22 15 59 21
83 6 23 9 45 6 48 -2 3 -9 -12 -15 -33z"/>
<path d="M2198 1239 c-24 -42 -54 -52 -190 -62 -14 -1 -24 -5 -21 -10 6 -11
132 4 170 20 18 7 40 27 48 44 21 40 15 47 -7 8z"/>
<path d="M1000 1239 c-25 -10 -40 -26 -40 -44 1 -5 5 -2 11 8 5 9 18 17 28 17
10 0 24 7 31 15 14 17 6 18 -30 4z"/>
<path d="M1605 1150 c-14 -46 -24 -85 -22 -87 3 -2 16 33 30 79 14 45 24 84
22 86 -2 2 -15 -33 -30 -78z"/>
<path d="M964 1161 c-30 -18 -100 -109 -90 -118 2 -2 12 7 23 22 52 74 112
113 137 88 4 -5 36 -8 72 -9 53 0 68 -4 90 -25 34 -31 65 -99 58 -126 -6 -20
-16 -26 -96 -54 -18 -7 -47 -27 -65 -45 -18 -19 -41 -34 -52 -34 -12 0 -21 -4
-21 -10 0 -5 -10 -10 -23 -10 -24 0 -67 25 -67 40 0 4 -13 22 -29 39 -15 16
-32 45 -36 63 -7 27 -9 29 -12 11 -6 -29 22 -80 68 -125 46 -45 87 -58 104
-34 7 9 24 16 39 16 18 0 30 7 38 25 11 25 62 57 110 68 36 9 58 33 58 63 0
35 -34 97 -70 128 -26 21 -40 25 -89 25 -32 -1 -68 4 -79 10 -27 15 -32 14
-68 -8z"/>
<path d="M755 1158 c-9 -26 -35 -133 -34 -143 0 -5 5 1 10 15 14 33 38 140 33
140 -3 0 -7 -6 -9 -12z"/>
<path d="M1615 1090 c-15 -45 -25 -83 -23 -86 3 -2 17 32 33 76 15 45 25 83
22 86 -3 3 -17 -31 -32 -76z"/>
<path d="M2341 1130 c-7 -23 -7 -29 1 -24 8 5 9 1 3 -12 -4 -10 -8 -28 -9 -39
-1 -11 -7 -31 -15 -43 -7 -13 -11 -26 -9 -28 3 -2 15 15 28 38 13 22 18 38 11
34 -6 -4 -11 -3 -11 3 0 5 5 13 11 17 6 3 8 15 5 27 -3 11 -1 29 5 39 6 11 6
18 0 18 -5 0 -14 -14 -20 -30z"/>
<path d="M741 1006 c-13 -43 -21 -80 -18 -83 8 -7 50 133 45 148 -2 7 -14 -22
-27 -65z"/>
<path d="M1929 1067 c6 -8 10 -42 10 -76 -1 -35 3 -67 9 -73 13 -13 85 -14
137 -1 45 11 89 32 82 40 -3 2 -16 -1 -29 -8 -28 -15 -93 -31 -129 -31 -52 -1
-59 7 -59 71 0 65 -6 91 -22 91 -7 0 -6 -5 1 -13z"/>
<path d="M2210 1065 c-15 -18 -80 -20 -100 -2 -12 10 -12 9 -1 -5 17 -23 93
-25 111 -3 7 9 11 18 8 20 -3 3 -11 -1 -18 -10z"/>
<path d="M1117 1050 c4 -14 0 -20 -11 -20 -9 0 -16 -3 -16 -8 0 -4 -10 -13
-22 -21 -20 -12 -24 -11 -41 10 -16 20 -19 21 -16 5 7 -35 34 -42 74 -20 46
24 57 37 49 58 -9 23 -23 20 -17 -4z"/>
<path d="M1361 1007 c-2 -31 -32 -67 -56 -67 -12 0 -30 -9 -41 -21 -15 -17
-27 -20 -58 -16 -26 4 -35 2 -25 -4 21 -13 62 -11 84 5 11 7 32 16 47 20 34 8
61 47 55 78 -3 15 -5 17 -6 5z"/>
<path d="M1837 977 c-3 -8 -8 -36 -11 -63 -5 -47 -5 -46 8 11 14 57 15 82 3
52z"/>
<path d="M1846 889 c-3 -17 -5 -46 -5 -63 1 -18 5 -7 10 28 9 63 6 88 -5 35z"/>
<path d="M1886 885 c-3 -9 -5 -35 -5 -58 1 -42 1 -41 10 12 9 54 7 76 -5 46z"/>
<path d="M2107 856 c-4 -10 -7 -32 -6 -49 1 -31 1 -31 10 7 10 43 7 72 -4 42z"/>
<path d="M1944 846 c-3 -7 -4 -35 -2 -62 l3 -49 5 63 c5 63 4 73 -6 48z"/>
<path d="M2027 843 c-4 -3 -6 -29 -6 -57 l2 -51 7 55 c7 59 7 64 -3 53z"/>
<path d="M1433 768 c-4 -7 -15 -31 -23 -53 -11 -28 -27 -46 -52 -59 -33 -18
-40 -19 -79 -6 -54 17 -48 12 -65 57 l-15 38 6 -34 c6 -41 21 -61 46 -61 10 0
21 -4 24 -10 10 -16 68 -11 101 9 21 13 36 35 51 75 20 55 22 68 6 44z"/>
<path d="M1040 751 c0 -6 1 -11 3 -11 1 0 16 -4 33 -9 21 -6 38 -5 55 5 22 12
21 12 -18 7 -27 -4 -48 -1 -58 7 -10 9 -15 9 -15 1z"/>
<path d="M958 722 c-2 -15 -1 -38 3 -52 5 -18 7 -10 8 28 1 56 -4 69 -11 24z"/>
<path d="M993 645 c0 -33 2 -45 4 -27 2 18 2 45 0 60 -2 15 -4 0 -4 -33z"/>
<path d="M1060 567 c0 -25 4 -48 9 -51 8 -5 3 84 -5 93 -2 2 -4 -16 -4 -42z"/>
<path d="M1452 530 c-15 -25 -60 -36 -84 -21 -27 17 -22 4 6 -14 22 -15 27
-15 54 -1 16 8 32 23 36 32 9 24 2 26 -12 4z"/>
</g>
</svg>
