<?xml version="1.0" standalone="no"?>
<!DOCTYPE svg PUBLIC "-//W3C//DTD SVG 20010904//EN"
 "http://www.w3.org/TR/2001/REC-SVG-20010904/DTD/svg10.dtd">
<svg version="1.0" xmlns="http://www.w3.org/2000/svg"
 width="1035.000000pt" height="776.000000pt" viewBox="0 0 1035.000000 776.000000"
 preserveAspectRatio="xMidYMid meet">
<metadata>
Created by potrace 1.16, written by Peter Selinger 2001-2019
</metadata>
<g transform="translate(0.000000,776.000000) scale(0.100000,-0.100000)"
fill="#000000" stroke="none">
<path d="M0 3880 l0 -3880 5175 0 5175 0 0 3880 0 3880 -5175 0 -5175 0 0
-3880z m1366 3500 c20 -63 45 -133 55 -155 9 -22 32 -76 50 -120 41 -103 174
-363 224 -440 21 -33 54 -85 73 -115 20 -30 46 -68 59 -83 13 -16 23 -34 23
-40 0 -14 -123 153 -160 217 -104 179 -145 254 -158 290 -9 23 -25 57 -37 76
-11 19 -32 64 -46 100 -120 303 -139 358 -139 395 0 35 17 -2 56 -125z m7672
97 c-3 -24 -21 -81 -41 -128 -19 -46 -50 -124 -68 -174 -33 -92 -167 -371
-210 -437 -13 -20 -37 -59 -53 -85 -44 -73 -77 -123 -116 -174 -219 -288 -351
-425 -565 -583 -177 -132 -419 -285 -431 -273 -2 2 40 30 94 62 169 100 300
192 428 300 65 54 280 267 333 330 42 49 201 263 201 270 0 2 20 36 45 75 109
170 246 468 330 718 27 78 51 142 53 142 3 0 2 -19 0 -43z m-6803 -405 c193
-83 442 -192 555 -243 113 -50 243 -108 290 -129 495 -220 1487 -702 1908
-928 l74 -39 -79 -55 c-78 -55 -288 -264 -393 -390 -30 -37 -62 -67 -70 -67
-9 -1 -76 21 -150 48 -842 305 -1333 534 -1686 787 -429 306 -683 628 -820
1038 -25 75 -42 141 -39 146 4 6 16 5 33 -4 15 -8 185 -82 377 -164z m6260 35
c-128 -402 -397 -745 -816 -1043 -408 -291 -863 -496 -2024 -915 -312 -113
-406 -154 -492 -216 -266 -190 -595 -493 -763 -703 -46 -58 -113 -152 -150
-210 -71 -111 -90 -133 -188 -218 -83 -71 -122 -149 -122 -243 0 -37 4 -79 10
-93 5 -14 6 -26 2 -26 -4 1 -47 52 -95 114 -49 62 -102 127 -118 144 -16 17
-29 33 -29 35 0 2 60 64 133 138 340 346 517 541 713 784 295 368 458 664 481
879 l8 68 195 105 c200 107 998 510 1195 603 355 168 485 229 695 325 129 59
253 116 275 125 22 10 60 27 85 38 85 40 485 214 730 318 135 57 259 110 275
118 43 19 43 6 0 -127z m-3675 -1782 c-17 -58 -72 -155 -150 -264 -115 -161
-283 -359 -669 -786 -269 -298 -363 -423 -395 -527 -4 -14 -16 -18 -47 -18
-56 0 -79 21 -79 75 0 40 11 54 291 381 160 186 303 353 317 369 77 86 579
674 652 763 79 96 85 101 88 75 2 -15 -1 -46 -8 -68z m1106 -364 c-5 -7 20
-39 123 -156 14 -16 136 -158 271 -315 134 -157 273 -319 309 -360 35 -41 87
-102 115 -134 28 -33 70 -82 94 -108 44 -51 52 -81 31 -121 -17 -31 -28 -37
-76 -37 -40 0 -43 2 -52 38 -18 67 -137 224 -340 452 -47 52 -88 97 -91 100
-3 3 -39 43 -80 90 -41 47 -77 87 -81 90 -12 11 -236 269 -274 314 -22 27 -51
60 -64 73 -28 29 -23 37 45 63 53 21 78 25 70 11z m-259 -133 c16 -36 197
-260 353 -438 140 -159 404 -436 548 -574 39 -38 72 -73 72 -77 0 -7 -203
-264 -235 -297 -10 -11 -9 -2 2 40 34 130 -32 272 -174 369 -28 20 -59 57 -94
115 -72 119 -178 260 -291 384 -165 182 -389 386 -413 376 -20 -7 -189 -113
-216 -135 -13 -11 -22 -21 -19 -23 3 -2 52 -41 110 -86 208 -161 418 -400 556
-631 35 -58 70 -116 79 -128 25 -36 69 -29 155 22 68 41 130 58 130 36 0 -5
-16 -28 -35 -51 -64 -77 -37 -113 46 -61 82 51 101 36 53 -42 -35 -55 -34 -55
-45 -34 -7 12 -17 16 -30 12 -28 -9 -79 30 -79 61 0 13 5 33 12 44 19 29 1 36
-30 12 -78 -63 -141 -75 -196 -39 -11 8 -43 58 -70 110 -27 53 -57 104 -67
113 -11 10 -19 21 -19 27 0 15 -72 128 -90 140 -10 7 -39 41 -67 77 -86 114
-323 337 -405 382 -30 17 -33 16 -67 -3 -85 -48 -327 -276 -406 -384 -21 -27
-45 -57 -54 -65 -21 -18 -91 -117 -91 -128 0 -4 -12 -25 -27 -47 -34 -48 -65
-104 -94 -167 -16 -37 -29 -50 -60 -62 -22 -9 -49 -16 -60 -16 -24 0 -99 39
-99 51 0 12 -39 31 -50 24 -6 -4 -3 -16 6 -30 9 -14 13 -33 9 -44 -9 -28 -58
-62 -87 -59 -14 2 -22 -2 -20 -9 1 -7 -2 -13 -8 -13 -15 0 -59 71 -62 100 -4
32 15 30 82 -12 47 -29 52 -30 67 -15 15 15 15 18 -1 39 -9 13 -28 38 -42 57
-46 65 3 61 125 -10 39 -24 79 -39 98 -39 29 0 35 6 69 68 112 201 232 359
399 527 121 121 275 248 370 305 22 13 42 27 45 30 7 9 160 100 167 100 4 0
14 6 22 14 25 22 184 105 202 106 9 0 20 -10 26 -22z m-2052 -1273 c103 -88
203 -171 221 -184 19 -13 34 -28 34 -32 0 -4 -33 -25 -72 -46 -71 -37 -160
-112 -170 -143 -4 -12 -18 -9 -74 19 -119 57 -344 217 -344 243 0 4 20 26 44
49 40 36 115 167 140 242 3 10 12 17 20 15 8 -2 98 -75 201 -163z m3345 152
c0 -36 93 -201 139 -247 l50 -49 -52 -47 c-63 -57 -166 -127 -268 -182 -79
-44 -109 -51 -109 -28 0 23 -93 100 -169 140 -62 32 -88 56 -63 56 9 0 208
163 298 245 6 6 29 25 52 43 22 18 53 44 69 58 31 27 53 31 53 11z m-2772
-190 c6 -30 -142 -167 -278 -257 -69 -45 -131 -89 -137 -98 -21 -26 -15 -56
17 -87 36 -35 39 -71 8 -111 -13 -16 -26 -33 -30 -39 -5 -5 -43 -55 -86 -110
-43 -55 -123 -164 -178 -243 -54 -78 -127 -181 -161 -230 -35 -48 -80 -113
-100 -146 -21 -32 -57 -85 -80 -116 -207 -287 -327 -514 -355 -670 -15 -88 -3
-545 17 -642 18 -82 17 -78 6 -78 -21 0 -68 261 -78 430 -13 237 63 527 179
681 44 58 100 137 163 229 28 41 105 152 170 245 121 174 165 237 315 455 47
69 117 169 154 223 59 85 65 98 49 105 -10 4 -37 17 -61 30 -42 22 -42 23 -27
51 26 51 132 129 270 199 22 11 71 54 108 96 57 63 66 79 58 94 -9 18 -7 19
22 13 19 -4 33 -14 35 -24z m2040 8 c-10 -22 -5 -30 56 -96 53 -57 88 -84 169
-128 103 -56 217 -152 217 -182 0 -9 -22 -26 -51 -39 -28 -13 -53 -28 -55 -32
-5 -7 173 -273 322 -483 24 -33 64 -91 91 -130 26 -38 127 -182 223 -320 309
-443 324 -470 371 -659 47 -191 32 -527 -35 -736 -19 -61 -21 -19 -2 75 9 50
13 154 12 365 l-1 295 -33 80 c-32 78 -44 103 -96 195 -13 25 -36 65 -50 90
-14 25 -52 83 -85 130 -33 47 -94 135 -135 195 -98 144 -166 242 -246 354 -36
50 -88 126 -117 167 -28 42 -63 88 -76 103 -31 32 -152 193 -167 221 -14 26
-4 59 25 82 55 43 34 84 -83 162 -45 31 -85 56 -88 56 -20 0 -203 171 -223
208 -15 28 -12 32 31 42 18 4 34 8 35 9 2 1 -2 -10 -9 -24z m-2982 -255 c75
-70 198 -148 367 -235 40 -21 57 -35 54 -46 -6 -21 -569 -862 -649 -969 -36
-47 -90 -119 -122 -160 -79 -104 -161 -272 -194 -400 -25 -97 -27 -119 -26
-300 0 -177 3 -206 28 -313 15 -66 26 -120 24 -122 -2 -2 -44 5 -94 15 -351
72 -605 167 -809 303 -96 64 -224 201 -263 280 -19 38 -32 70 -30 73 2 2 32
-27 66 -65 202 -226 438 -297 717 -216 50 15 108 36 129 48 38 21 40 25 56
107 10 47 25 108 34 135 44 131 163 338 270 469 27 32 83 106 125 165 197 272
458 629 550 751 55 74 101 139 101 145 0 5 -38 29 -84 53 -158 80 -264 179
-315 292 -11 25 -21 56 -21 70 0 25 0 25 19 -5 10 -16 40 -50 67 -75z m3939
44 c-33 -111 -142 -226 -294 -309 -50 -27 -99 -55 -108 -61 -14 -10 -3 -28 84
-145 54 -74 150 -204 213 -289 63 -85 137 -186 165 -225 29 -38 94 -128 145
-200 52 -71 119 -162 151 -200 56 -70 163 -230 206 -311 39 -72 91 -219 109
-309 16 -83 18 -87 53 -104 204 -102 465 -104 641 -3 79 45 185 137 243 212
28 37 35 29 15 -17 -105 -239 -407 -435 -857 -559 -134 -37 -322 -77 -328 -70
-2 2 3 28 11 57 36 129 50 235 50 384 -1 297 -78 509 -274 757 -36 46 -111
148 -167 228 -141 204 -563 839 -563 848 0 4 42 29 94 54 175 87 340 204 391
278 15 22 30 39 31 37 2 -2 -3 -26 -11 -53z m235 -187 c60 -84 123 -172 140
-197 17 -25 55 -79 84 -120 230 -328 404 -597 457 -709 139 -291 310 -475 548
-589 l93 -44 -48 -50 c-235 -239 -470 -314 -678 -215 l-72 34 -33 104 c-18 57
-50 144 -71 192 -35 80 -124 234 -160 275 -79 91 -140 168 -282 357 -264 349
-365 482 -466 608 -51 65 -92 120 -90 122 2 1 32 17 68 35 176 87 304 221 350
363 l12 38 20 -26 c11 -14 69 -94 128 -178z m-4330 179 c0 -32 75 -159 123
-209 71 -73 118 -107 215 -157 46 -23 82 -46 80 -50 -2 -5 -64 -87 -139 -182
-74 -95 -234 -303 -354 -463 -120 -159 -244 -320 -276 -357 -128 -149 -215
-304 -282 -508 -50 -149 -57 -157 -154 -192 -158 -56 -330 -21 -493 101 -58
43 -190 169 -190 180 1 3 44 27 98 53 232 111 406 302 544 597 46 99 191 320
486 746 105 151 145 208 270 381 52 72 72 89 72 60z"/>
<path d="M2195 1054 c-37 -19 -45 -31 -45 -72 0 -40 22 -85 52 -106 32 -23 90
-20 122 5 21 17 26 29 26 68 0 55 -20 88 -66 107 -42 18 -52 17 -89 -2z"/>
<path d="M2413 1050 c-18 -11 -33 -28 -34 -37 -6 -94 39 -153 116 -153 110 0
117 151 9 196 -44 18 -53 18 -91 -6z"/>
<path d="M7862 1063 c-13 -3 -38 -20 -57 -39 -28 -28 -35 -43 -35 -74 0 -59
33 -92 92 -92 56 -1 70 9 99 68 29 62 21 106 -25 128 -19 9 -38 15 -43 15 -4
-1 -18 -4 -31 -6z"/>
<path d="M8063 1053 c-33 -17 -63 -65 -63 -101 0 -68 57 -110 123 -91 41 11
63 37 77 91 14 50 -1 85 -45 103 -42 18 -51 18 -92 -2z"/>
<path d="M7439 2761 c-45 -44 -50 -78 -20 -128 34 -55 114 -56 170 -1 26 26
31 38 31 78 0 62 -30 90 -98 90 -38 0 -50 -5 -83 -39z"/>
<path d="M7755 2208 c-30 -23 -55 -74 -55 -111 0 -13 11 -36 25 -51 32 -35
101 -37 133 -3 25 26 52 88 52 117 0 61 -99 92 -155 48z"/>
<path d="M8109 1642 c-24 -21 -32 -38 -36 -74 -5 -42 -3 -50 25 -78 58 -57
134 -32 168 55 14 37 14 50 5 74 -24 57 -110 69 -162 23z"/>
<path d="M2793 2798 c-45 -12 -67 -48 -60 -99 6 -48 37 -84 84 -100 40 -13 70
-7 106 22 22 17 27 29 27 65 0 79 -76 133 -157 112z"/>
<path d="M2466 2208 c-28 -40 -17 -114 24 -158 58 -62 160 -27 160 55 0 77
-47 125 -122 125 -37 0 -50 -5 -62 -22z"/>
<path d="M2106 1649 c-63 -49 -1 -189 85 -189 34 0 85 41 93 75 8 32 -24 109
-52 124 -34 18 -97 13 -126 -10z"/>
</g>
</svg>
